<svg id="visual" viewBox="0 0 450 -200" width="900" height="300" xmlns="http://www.w3.org/2000/svg" xmlns:xlink="http://www.w3.org/1999/xlink" version="1.1"><rect x="0" y="0" width="1200" height="0" ></rect><path d="M0 223L21.5 207.8C43 192.7 86 162.3 128.8 154C171.7 145.7 214.3 159.3 257.2 161.2C300 163 343 153 385.8 158.3C428.7 163.7 471.3 184.3 514.2 182.2C557 180 600 155 642.8 145.5C685.7 136 728.3 142 771.2 144.2C814 146.3 857 144.7 878.5 143.8L900 143L900 0L878.5 0C857 0 814 0 771.2 0C728.3 0 685.7 0 642.8 0C600 0 557 0 514.2 0C471.3 0 428.7 0 385.8 0C343 0 300 0 257.2 0C214.3 0 171.7 0 128.8 0C86 0 43 0 21.5 0L0 0Z" fill="#0066FF" stroke-linecap="round" stroke-linejoin="miter"></path></svg>