<svg id="visual" viewBox="0 0 450 100" width="450" height="100" xmlns="http://www.w3.org/2000/svg" xmlns:xlink="http://www.w3.org/1999/xlink" version="1.1"><path d="M0 19L4.3 17.3C8.7 15.7 17.3 12.3 26.2 12.2C35 12 44 15 52.8 16.3C61.7 17.7 70.3 17.3 79.2 17.2C88 17 97 17 105.8 18.8C114.7 20.7 123.3 24.3 132.2 25C141 25.7 150 23.3 158.8 21C167.7 18.7 176.3 16.3 185.2 15.5C194 14.7 203 15.3 211.8 15.5C220.7 15.7 229.3 15.3 238.2 15.5C247 15.7 256 16.3 264.8 15.8C273.7 15.3 282.3 13.7 291.2 15.3C300 17 309 22 317.8 23.8C326.7 25.7 335.3 24.3 344.2 23.8C353 23.3 362 23.7 370.8 24.3C379.7 25 388.3 26 397.2 25.5C406 25 415 23 423.8 23.2C432.7 23.3 441.3 25.7 445.7 26.8L450 28L450 0L445.7 0C441.3 0 432.7 0 423.8 0C415 0 406 0 397.2 0C388.3 0 379.7 0 370.8 0C362 0 353 0 344.2 0C335.3 0 326.7 0 317.8 0C309 0 300 0 291.2 0C282.3 0 273.7 0 264.8 0C256 0 247 0 238.2 0C229.3 0 220.7 0 211.8 0C203 0 194 0 185.2 0C176.3 0 167.7 0 158.8 0C150 0 141 0 132.2 0C123.3 0 114.7 0 105.8 0C97 0 88 0 79.2 0C70.3 0 61.7 0 52.8 0C44 0 35 0 26.2 0C17.3 0 8.7 0 4.3 0L0 0Z" fill="#0066ff"></path><path d="M0 32L4.3 31.2C8.7 30.3 17.3 28.7 26.2 34.5C35 40.3 44 53.7 52.8 58C61.7 62.3 70.3 57.7 79.2 53C88 48.3 97 43.7 105.8 45C114.7 46.3 123.3 53.7 132.2 54.2C141 54.7 150 48.3 158.8 48.8C167.7 49.3 176.3 56.7 185.2 57.5C194 58.3 203 52.7 211.8 51C220.7 49.3 229.3 51.7 238.2 54.8C247 58 256 62 264.8 64.8C273.7 67.7 282.3 69.3 291.2 66.3C300 63.3 309 55.7 317.8 53C326.7 50.3 335.3 52.7 344.2 53.3C353 54 362 53 370.8 53.2C379.7 53.3 388.3 54.7 397.2 55.3C406 56 415 56 423.8 55.2C432.7 54.3 441.3 52.7 445.7 51.8L450 51L450 26L445.7 24.8C441.3 23.7 432.7 21.3 423.8 21.2C415 21 406 23 397.2 23.5C388.3 24 379.7 23 370.8 22.3C362 21.7 353 21.3 344.2 21.8C335.3 22.3 326.7 23.7 317.8 21.8C309 20 300 15 291.2 13.3C282.3 11.7 273.7 13.3 264.8 13.8C256 14.3 247 13.7 238.2 13.5C229.3 13.3 220.7 13.7 211.8 13.5C203 13.3 194 12.7 185.2 13.5C176.3 14.3 167.7 16.7 158.8 19C150 21.3 141 23.7 132.2 23C123.3 22.3 114.7 18.7 105.8 16.8C97 15 88 15 79.2 15.2C70.3 15.3 61.7 15.7 52.8 14.3C44 13 35 10 26.2 10.2C17.3 10.3 8.7 13.7 4.3 15.3L0 17Z" fill="#0b53e4"></path><path d="M0 51L4.3 48.2C8.7 45.3 17.3 39.7 26.2 44C35 48.3 44 62.7 52.8 68.7C61.7 74.7 70.3 72.3 79.2 68.7C88 65 97 60 105.8 61.5C114.7 63 123.3 71 132.2 71.3C141 71.7 150 64.3 158.8 64C167.7 63.7 176.3 70.3 185.2 71.8C194 73.3 203 69.7 211.8 67C220.7 64.3 229.3 62.7 238.2 65C247 67.3 256 73.7 264.8 76.7C273.7 79.7 282.3 79.3 291.2 75.8C300 72.3 309 65.7 317.8 63.5C326.7 61.3 335.3 63.7 344.2 66C353 68.3 362 70.7 370.8 71.7C379.7 72.7 388.3 72.3 397.2 72.8C406 73.3 415 74.7 423.8 74.5C432.7 74.3 441.3 72.7 445.7 71.8L450 71L450 49L445.7 49.8C441.3 50.7 432.7 52.3 423.8 53.2C415 54 406 54 397.2 53.3C388.3 52.7 379.7 51.3 370.8 51.2C362 51 353 52 344.2 51.3C335.3 50.7 326.7 48.3 317.8 51C309 53.7 300 61.3 291.2 64.3C282.3 67.3 273.7 65.7 264.8 62.8C256 60 247 56 238.2 52.8C229.3 49.7 220.7 47.3 211.8 49C203 50.7 194 56.3 185.2 55.5C176.3 54.7 167.7 47.3 158.8 46.8C150 46.3 141 52.7 132.2 52.2C123.3 51.7 114.7 44.3 105.8 43C97 41.7 88 46.3 79.2 51C70.3 55.7 61.7 60.3 52.8 56C44 51.7 35 38.3 26.2 32.5C17.3 26.7 8.7 28.3 4.3 29.2L0 30Z" fill="#0c40ca"></path><path d="M0 68L4.3 64.7C8.7 61.3 17.3 54.7 26.2 57.7C35 60.7 44 73.3 52.8 80C61.7 86.7 70.3 87.3 79.2 85C88 82.7 97 77.3 105.8 77.7C114.7 78 123.3 84 132.2 82.7C141 81.3 150 72.7 158.8 71.3C167.7 70 176.3 76 185.2 79.3C194 82.7 203 83.3 211.8 82.2C220.7 81 229.3 78 238.2 78.8C247 79.7 256 84.3 264.8 85.8C273.7 87.3 282.3 85.7 291.2 83.5C300 81.3 309 78.7 317.8 78.5C326.7 78.3 335.3 80.7 344.2 81C353 81.3 362 79.7 370.8 80.3C379.7 81 388.3 84 397.2 85C406 86 415 85 423.8 83.2C432.7 81.3 441.3 78.7 445.7 77.3L450 76L450 69L445.7 69.8C441.3 70.7 432.7 72.3 423.8 72.5C415 72.7 406 71.3 397.2 70.8C388.3 70.3 379.7 70.7 370.8 69.7C362 68.7 353 66.3 344.2 64C335.3 61.7 326.7 59.3 317.8 61.5C309 63.7 300 70.3 291.2 73.8C282.3 77.3 273.7 77.7 264.8 74.7C256 71.7 247 65.3 238.2 63C229.3 60.7 220.7 62.3 211.8 65C203 67.7 194 71.3 185.2 69.8C176.3 68.3 167.7 61.7 158.8 62C150 62.3 141 69.7 132.2 69.3C123.3 69 114.7 61 105.8 59.5C97 58 88 63 79.2 66.7C70.3 70.3 61.7 72.7 52.8 66.7C44 60.7 35 46.3 26.2 42C17.3 37.7 8.7 43.3 4.3 46.2L0 49Z" fill="#082eb1"></path><path d="M0 101L4.3 101C8.7 101 17.3 101 26.2 101C35 101 44 101 52.8 101C61.7 101 70.3 101 79.2 101C88 101 97 101 105.8 101C114.7 101 123.3 101 132.2 101C141 101 150 101 158.8 101C167.7 101 176.3 101 185.2 101C194 101 203 101 211.8 101C220.7 101 229.3 101 238.2 101C247 101 256 101 264.8 101C273.7 101 282.3 101 291.2 101C300 101 309 101 317.8 101C326.7 101 335.3 101 344.2 101C353 101 362 101 370.8 101C379.7 101 388.3 101 397.2 101C406 101 415 101 423.8 101C432.7 101 441.3 101 445.7 101L450 101L450 74L445.7 75.3C441.3 76.7 432.7 79.3 423.8 81.2C415 83 406 84 397.2 83C388.3 82 379.7 79 370.8 78.3C362 77.7 353 79.3 344.2 79C335.3 78.7 326.7 76.3 317.8 76.5C309 76.7 300 79.3 291.2 81.5C282.3 83.7 273.7 85.3 264.8 83.8C256 82.3 247 77.7 238.2 76.8C229.3 76 220.7 79 211.8 80.2C203 81.3 194 80.7 185.2 77.3C176.3 74 167.7 68 158.8 69.3C150 70.7 141 79.3 132.2 80.7C123.3 82 114.7 76 105.8 75.7C97 75.3 88 80.7 79.2 83C70.3 85.3 61.7 84.7 52.8 78C44 71.3 35 58.7 26.2 55.7C17.3 52.7 8.7 59.3 4.3 62.7L0 66Z" fill="#001b98"></path></svg>