<svg id="visual" viewBox="0 0 500 110" width="500" height="110" xmlns="http://www.w3.org/2000/svg" xmlns:xlink="http://www.w3.org/1999/xlink" version="1.1"><path d="M0 51L13.8 54.7C27.7 58.3 55.3 65.7 83.2 63.5C111 61.3 139 49.7 166.8 49.8C194.7 50 222.3 62 250 63.8C277.7 65.7 305.3 57.3 333.2 56.8C361 56.3 389 63.7 416.8 66.2C444.7 68.7 472.3 66.3 486.2 65.2L500 64L500 0L486.2 0C472.3 0 444.7 0 416.8 0C389 0 361 0 333.2 0C305.3 0 277.7 0 250 0C222.3 0 194.7 0 166.8 0C139 0 111 0 83.2 0C55.3 0 27.7 0 13.8 0L0 0Z" fill="#0066FF" stroke-linecap="round" stroke-linejoin="miter"></path></svg>